<svg xmlns="http://www.w3.org/2000/svg" width="760" height="382" font-family="ui-monospace,Menlo,monospace">
<rect width="760" height="382" rx="16" fill="#1c2128"/>
<text x="28" y="50" font-size="22" font-weight="700" fill="#d4dae3">Soft Night  ·  dark</text>
<rect x="28.0" y="66" width="168.5" height="64" rx="8" fill="#1c2128" stroke="#9aa3b0" stroke-opacity="0.35"/>
<text x="38.0" y="92" font-size="12" font-weight="600" fill="#ffffff">background</text>
<text x="38.0" y="112" font-size="12" fill="#ffffff" opacity="0.85">#1c2128</text>
<rect x="206.5" y="66" width="168.5" height="64" rx="8" fill="#d4dae3" stroke="#9aa3b0" stroke-opacity="0.35"/>
<text x="216.5" y="92" font-size="12" font-weight="600" fill="#000000">foreground</text>
<text x="216.5" y="112" font-size="12" fill="#000000" opacity="0.85">#d4dae3</text>
<rect x="385.0" y="66" width="168.5" height="64" rx="8" fill="#38414d" stroke="#9aa3b0" stroke-opacity="0.35"/>
<text x="395.0" y="92" font-size="12" font-weight="600" fill="#ffffff">selection</text>
<text x="395.0" y="112" font-size="12" fill="#ffffff" opacity="0.85">#38414d</text>
<rect x="563.5" y="66" width="168.5" height="64" rx="8" fill="#e06b62" stroke="#9aa3b0" stroke-opacity="0.35"/>
<text x="573.5" y="92" font-size="12" font-weight="600" fill="#000000">cursor</text>
<text x="573.5" y="112" font-size="12" fill="#000000" opacity="0.85">#e06b62</text>
<rect x="28" y="154" width="84" height="84" rx="8" fill="#2c333d" stroke="#9aa3b0" stroke-opacity="0.35"/>
<text x="37" y="174" font-size="11" font-weight="600" fill="#ffffff">black</text>
<text x="37" y="226" font-size="11" fill="#ffffff" opacity="0.9">#2c333d</text>
<rect x="122" y="154" width="84" height="84" rx="8" fill="#e06b62" stroke="#9aa3b0" stroke-opacity="0.35"/>
<text x="131" y="174" font-size="11" font-weight="600" fill="#000000">red</text>
<text x="131" y="226" font-size="11" fill="#000000" opacity="0.9">#e06b62</text>
<rect x="216" y="154" width="84" height="84" rx="8" fill="#7bc46f" stroke="#9aa3b0" stroke-opacity="0.35"/>
<text x="225" y="174" font-size="11" font-weight="600" fill="#000000">green</text>
<text x="225" y="226" font-size="11" fill="#000000" opacity="0.9">#7bc46f</text>
<rect x="310" y="154" width="84" height="84" rx="8" fill="#d2a24a" stroke="#9aa3b0" stroke-opacity="0.35"/>
<text x="319" y="174" font-size="11" font-weight="600" fill="#000000">yellow</text>
<text x="319" y="226" font-size="11" fill="#000000" opacity="0.9">#d2a24a</text>
<rect x="404" y="154" width="84" height="84" rx="8" fill="#5a9fe0" stroke="#9aa3b0" stroke-opacity="0.35"/>
<text x="413" y="174" font-size="11" font-weight="600" fill="#000000">blue</text>
<text x="413" y="226" font-size="11" fill="#000000" opacity="0.9">#5a9fe0</text>
<rect x="498" y="154" width="84" height="84" rx="8" fill="#c47fd6" stroke="#9aa3b0" stroke-opacity="0.35"/>
<text x="507" y="174" font-size="11" font-weight="600" fill="#000000">magenta</text>
<text x="507" y="226" font-size="11" fill="#000000" opacity="0.9">#c47fd6</text>
<rect x="592" y="154" width="84" height="84" rx="8" fill="#4cc2c2" stroke="#9aa3b0" stroke-opacity="0.35"/>
<text x="601" y="174" font-size="11" font-weight="600" fill="#000000">cyan</text>
<text x="601" y="226" font-size="11" fill="#000000" opacity="0.9">#4cc2c2</text>
<rect x="686" y="154" width="84" height="84" rx="8" fill="#c3cad4" stroke="#9aa3b0" stroke-opacity="0.35"/>
<text x="695" y="174" font-size="11" font-weight="600" fill="#000000">white</text>
<text x="695" y="226" font-size="11" fill="#000000" opacity="0.9">#c3cad4</text>
<rect x="28" y="248" width="84" height="84" rx="8" fill="#5c6773" stroke="#9aa3b0" stroke-opacity="0.35"/>
<text x="37" y="268" font-size="11" font-weight="600" fill="#ffffff">br.black</text>
<text x="37" y="320" font-size="11" fill="#ffffff" opacity="0.9">#5c6773</text>
<rect x="122" y="248" width="84" height="84" rx="8" fill="#ef837a" stroke="#9aa3b0" stroke-opacity="0.35"/>
<text x="131" y="268" font-size="11" font-weight="600" fill="#000000">br.red</text>
<text x="131" y="320" font-size="11" fill="#000000" opacity="0.9">#ef837a</text>
<rect x="216" y="248" width="84" height="84" rx="8" fill="#92d886" stroke="#9aa3b0" stroke-opacity="0.35"/>
<text x="225" y="268" font-size="11" font-weight="600" fill="#000000">br.green</text>
<text x="225" y="320" font-size="11" fill="#000000" opacity="0.9">#92d886</text>
<rect x="310" y="248" width="84" height="84" rx="8" fill="#e6bb6a" stroke="#9aa3b0" stroke-opacity="0.35"/>
<text x="319" y="268" font-size="11" font-weight="600" fill="#000000">br.yellow</text>
<text x="319" y="320" font-size="11" fill="#000000" opacity="0.9">#e6bb6a</text>
<rect x="404" y="248" width="84" height="84" rx="8" fill="#79b4f0" stroke="#9aa3b0" stroke-opacity="0.35"/>
<text x="413" y="268" font-size="11" font-weight="600" fill="#000000">br.blue</text>
<text x="413" y="320" font-size="11" fill="#000000" opacity="0.9">#79b4f0</text>
<rect x="498" y="248" width="84" height="84" rx="8" fill="#d699e6" stroke="#9aa3b0" stroke-opacity="0.35"/>
<text x="507" y="268" font-size="11" font-weight="600" fill="#000000">br.magenta</text>
<text x="507" y="320" font-size="11" fill="#000000" opacity="0.9">#d699e6</text>
<rect x="592" y="248" width="84" height="84" rx="8" fill="#6dd6d6" stroke="#9aa3b0" stroke-opacity="0.35"/>
<text x="601" y="268" font-size="11" font-weight="600" fill="#000000">br.cyan</text>
<text x="601" y="320" font-size="11" fill="#000000" opacity="0.9">#6dd6d6</text>
<rect x="686" y="248" width="84" height="84" rx="8" fill="#eef1f5" stroke="#9aa3b0" stroke-opacity="0.35"/>
<text x="695" y="268" font-size="11" font-weight="600" fill="#000000">br.white</text>
<text x="695" y="320" font-size="11" fill="#000000" opacity="0.9">#eef1f5</text>
</svg>